<svg data-v-fde0c5aa="" xmlns="http://www.w3.org/2000/svg" viewBox="0 0 300 300" class="iconLeft"><!----><defs data-v-fde0c5aa=""><!----></defs><rect data-v-fde0c5aa="" fill="#D85A3B" x="0" y="0" width="300px" height="300px" class="logo-background-square"></rect><defs data-v-fde0c5aa=""><!----></defs><g data-v-fde0c5aa="" id="8c58b2df-dcfb-4f76-85f6-d55b36829956" fill="#ffffff" transform="matrix(2.4918742179870605,0,0,2.4918742179870605,94.29035787222759,137.56554698233114)"><path d="M6.38 9.68L6.38 9.68L6.38 9.68Q5.54 10.68 3.86 10.68L3.86 10.68L3.86 10.68Q2.18 10.68 1.34 9.68L1.34 9.68L1.34 9.68Q0.50 8.68 0.50 7.01L0.50 7.01L0.50 6.57L0.50 6.57Q0.50 4.89 1.34 3.89L1.34 3.89L1.34 3.89Q2.18 2.90 3.86 2.90L3.86 2.90L3.86 2.90Q5.54 2.90 6.38 3.89L6.38 3.89L6.38 3.89Q7.22 4.89 7.22 6.57L7.22 6.57L7.22 7.01L7.22 7.01Q7.22 8.68 6.38 9.68ZM2.32 7.01L2.32 7.01Q2.32 9.09 3.86 9.09L3.86 9.09L3.86 9.09Q5.40 9.09 5.40 7.01L5.40 7.01L5.40 6.57L5.40 6.57Q5.40 4.48 3.86 4.48L3.86 4.48L3.86 4.48Q2.32 4.48 2.32 6.57L2.32 6.57L2.32 7.01ZM14.90 5.42L14.90 10.50L13.09 10.50L13.09 5.71L13.09 5.71Q13.09 5.15 12.80 4.82L12.80 4.82L12.80 4.82Q12.50 4.48 11.91 4.48L11.91 4.48L11.91 4.48Q10.89 4.48 10.37 5.33L10.37 5.33L10.37 10.50L8.55 10.50L8.55 5.18L8.43 3.08L10.04 3.08L10.21 4.06L10.21 4.06Q11.00 2.90 12.61 2.90L12.61 2.90L12.61 2.90Q13.76 2.90 14.33 3.61L14.33 3.61L14.33 3.61Q14.90 4.33 14.90 5.42L14.90 5.42ZM22.85 6.61L22.85 7.46L17.95 7.46L17.95 7.46Q18.05 9.27 19.61 9.27L19.61 9.27L19.61 9.27Q20.31 9.27 20.72 8.93L20.72 8.93L20.72 8.93Q21.13 8.58 21.13 8.12L21.13 8.12L22.85 8.12L22.85 8.18L22.85 8.18Q22.85 9.23 21.99 9.95L21.99 9.95L21.99 9.95Q21.13 10.68 19.60 10.68L19.60 10.68L19.60 10.68Q17.88 10.68 17.00 9.66L17.00 9.66L17.00 9.66Q16.13 8.64 16.13 6.97L16.13 6.97L16.13 6.61L16.13 6.61Q16.13 4.94 17.00 3.92L17.00 3.92L17.00 3.92Q17.86 2.90 19.53 2.90L19.53 2.90L19.53 2.90Q21.17 2.90 22.01 3.92L22.01 3.92L22.01 3.92Q22.85 4.94 22.85 6.61L22.85 6.61ZM19.49 4.31L19.49 4.31L19.49 4.31Q18.06 4.31 17.95 6.12L17.95 6.12L21.01 6.12L21.01 6.12Q20.93 4.31 19.49 4.31ZM24.16-0.70L25.98-0.70L25.98 3.77L25.98 3.77Q26.71 2.90 27.96 2.90L27.96 2.90L27.96 2.90Q30.73 2.90 30.73 6.57L30.73 6.57L30.73 7.01L30.73 7.01Q30.73 8.71 30.06 9.70L30.06 9.70L30.06 9.70Q29.40 10.68 27.96 10.68L27.96 10.68L27.96 10.68Q26.53 10.68 25.82 9.58L25.82 9.58L25.66 10.50L24.05 10.50L24.16 8.40L24.16-0.70ZM25.98 5.33L25.98 5.33L25.98 8.25L25.98 8.25Q26.52 9.09 27.44 9.09L27.44 9.09L27.44 9.09Q28.91 9.09 28.91 7.01L28.91 7.01L28.91 6.57L28.91 6.57Q28.91 4.48 27.44 4.48L27.44 4.48L27.44 4.48Q26.53 4.48 25.98 5.33ZM31.98 8.15L31.98 3.08L33.78 3.08L33.78 7.87L33.78 7.87Q33.78 9.09 34.97 9.09L34.97 9.09L34.97 9.09Q35.98 9.09 36.51 8.25L36.51 8.25L36.51 3.08L38.33 3.08L38.33 8.40L38.44 10.50L36.83 10.50L36.67 9.52L36.67 9.52Q35.87 10.68 34.26 10.68L34.26 10.68L34.26 10.68Q33.11 10.68 32.54 9.97L32.54 9.97L32.54 9.97Q31.98 9.25 31.98 8.15L31.98 8.15ZM41.79 10.50L39.97 10.50L39.97 3.08L41.79 3.08L41.79 10.50ZM39.89-0.18L41.87-0.18L41.87 1.79L39.89 1.79L39.89-0.18ZM45.29 10.50L43.47 10.50L43.47-0.70L45.29-0.70L45.29 10.50ZM49.50 2.90L49.50 2.90L49.50 2.90Q50.74 2.90 51.46 3.77L51.46 3.77L51.46-0.70L53.28-0.70L53.28 8.40L53.40 10.50L51.79 10.50L51.63 9.58L51.63 9.58Q50.92 10.68 49.50 10.68L49.50 10.68L49.50 10.68Q48.06 10.68 47.39 9.70L47.39 9.70L47.39 9.70Q46.72 8.71 46.72 7.01L46.72 7.01L46.72 6.57L46.72 6.57Q46.72 4.86 47.38 3.88L47.38 3.88L47.38 3.88Q48.05 2.90 49.50 2.90ZM51.46 8.25L51.46 8.25L51.46 5.33L51.46 5.33Q50.95 4.48 50.01 4.48L50.01 4.48L50.01 4.48Q48.54 4.48 48.54 6.57L48.54 6.57L48.54 7.01L48.54 7.01Q48.54 9.09 50.01 9.09L50.01 9.09L50.01 9.09Q50.96 9.09 51.46 8.25ZM61.32 6.61L61.32 7.46L56.42 7.46L56.42 7.46Q56.52 9.27 58.09 9.27L58.09 9.27L58.09 9.27Q58.79 9.27 59.19 8.93L59.19 8.93L59.19 8.93Q59.60 8.58 59.60 8.12L59.60 8.12L61.32 8.12L61.32 8.18L61.32 8.18Q61.32 9.23 60.46 9.95L60.46 9.95L60.46 9.95Q59.60 10.68 58.07 10.68L58.07 10.68L58.07 10.68Q56.35 10.68 55.48 9.66L55.48 9.66L55.48 9.66Q54.60 8.64 54.60 6.97L54.60 6.97L54.60 6.61L54.60 6.61Q54.60 4.94 55.47 3.92L55.47 3.92L55.47 3.92Q56.34 2.90 58.00 2.90L58.00 2.90L58.00 2.90Q59.64 2.90 60.48 3.92L60.48 3.92L60.48 3.92Q61.32 4.94 61.32 6.61L61.32 6.61ZM57.96 4.31L57.96 4.31L57.96 4.31Q56.53 4.31 56.42 6.12L56.42 6.12L59.49 6.12L59.49 6.12Q59.40 4.31 57.96 4.31ZM66.29 2.90L66.29 2.90L66.29 2.90Q66.33 2.90 66.41 2.91L66.41 2.91L66.41 2.91Q66.49 2.91 66.50 2.91L66.50 2.91L66.50 4.68L66.19 4.68L66.19 4.68Q64.99 4.68 64.47 5.46L64.47 5.46L64.47 10.50L62.65 10.50L62.65 5.18L62.52 3.08L64.13 3.08L64.29 3.98L64.29 3.98Q65.03 2.90 66.29 2.90Z"></path></g><defs data-v-fde0c5aa=""><!----></defs><g data-v-fde0c5aa="" id="9c303bcd-e81c-493c-b17e-ec3efeb4553b" stroke="none" fill="#D8C93B" transform="matrix(1.3292592763900757,0,0,1.3292592763900757,40,128.7318524844585)"><path d="M31 1v30H1V1h30m1-1H0v32h32V0z"></path><path d="M24.12 1v24.608L7.88 9.368V1h16.24m1-1H6.88v9.783l18.24 18.239V0z"></path></g><!----></svg>